<svg width="2346" height="1059" viewBox="0 0 2346 1059" fill="none" xmlns="http://www.w3.org/2000/svg">
<rect y="618" width="335" height="98" fill="#CCCCCC"/>
<path d="M67.5 637L103.44 688H31.5599L67.5 637Z" fill="white"/>
<rect x="131" y="641" width="173" height="19" fill="white"/>
<rect x="131" y="670" width="173" height="19" fill="white"/>
<rect x="4" y="809" width="335" height="19" rx="9.5" fill="#CCCCCC"/>
<rect x="815" y="280" width="537" height="156" fill="#2156AF"/>
<path d="M923 309L981.024 391.5H864.976L923 309Z" fill="white"/>
<rect x="1024" y="317" width="278" height="29" fill="white"/>
<rect x="1024" y="364" width="278" height="29" fill="white"/>
<rect y="282" width="345" height="215" fill="#CCCCCC"/>
<path d="M2029 1010L1970.98 927.5H2087.02L2029 1010Z" fill="#919191"/>
<rect x="1890" y="799" width="278" height="29" fill="#919191"/>
<rect x="1890" y="846" width="278" height="29" fill="#919191"/>
<rect x="1711" y="106" width="635" height="953" rx="10" fill="white" fill-opacity="0.26"/>
<rect x="1711.5" y="106.5" width="634" height="952" rx="9.5" stroke="black" stroke-opacity="0.5"/>
<rect x="37" y="331" width="38" height="128" fill="white"/>
<rect x="79" y="395" width="37" height="64" fill="white"/>
<rect x="135" y="355" width="37" height="104" fill="white"/>
<rect x="177" y="381" width="37" height="78" fill="white"/>
<rect x="236" y="334" width="38" height="125" fill="white"/>
<rect x="279" y="428" width="37" height="31" fill="white"/>
<rect x="815" y="429" width="537" height="334" fill="#2156AF"/>
<rect x="873" y="505" width="58" height="199" fill="white"/>
<rect x="938" y="605" width="58" height="99" fill="white"/>
<rect x="1025" y="542" width="58" height="162" fill="white"/>
<rect x="1090" y="583" width="58" height="121" fill="white"/>
<rect x="1183" y="510" width="58" height="194" fill="white"/>
<rect x="1248" y="657" width="58" height="47" fill="white"/>
<rect x="1767" y="280" width="537" height="156" fill="#2156AF"/>
<path d="M1875 309L1933.02 391.5H1816.98L1875 309Z" fill="white"/>
<rect x="1976" y="317" width="278" height="29" fill="white"/>
<rect x="1764" y="182" width="540" height="49" rx="10" fill="#ADADAD"/>
<rect x="1976" y="364" width="278" height="29" fill="white"/>
<rect x="1767" y="429" width="537" height="334" fill="#2156AF"/>
<rect x="1825" y="505" width="58" height="199" fill="white"/>
<rect x="1890" y="605" width="58" height="99" fill="white"/>
<rect x="1977" y="542" width="58" height="162" fill="white"/>
<rect x="2042" y="583" width="58" height="121" fill="white"/>
<rect x="2135" y="510" width="58" height="194" fill="white"/>
<rect x="2200" y="657" width="58" height="47" fill="white"/>
<path d="M1638.77 511.768C1639.74 510.791 1639.74 509.209 1638.77 508.232L1622.86 492.322C1621.88 491.346 1620.3 491.346 1619.32 492.322C1618.35 493.299 1618.35 494.882 1619.32 495.858L1633.46 510L1619.32 524.142C1618.35 525.118 1618.35 526.701 1619.32 527.678C1620.3 528.654 1621.88 528.654 1622.86 527.678L1638.77 511.768ZM1427 512.5H1637V507.5H1427V512.5Z" fill="#9E9E9E"/>
<path d="M676.768 511.768C677.744 510.791 677.744 509.209 676.768 508.232L660.858 492.322C659.882 491.346 658.299 491.346 657.322 492.322C656.346 493.299 656.346 494.882 657.322 495.858L671.464 510L657.322 524.142C656.346 525.118 656.346 526.701 657.322 527.678C658.299 528.654 659.882 528.654 660.858 527.678L676.768 511.768ZM465 512.5H675V507.5H465V512.5Z" fill="#9E9E9E"/>
<rect x="36" y="181" width="272" height="70" fill="#C73434"/>
<rect x="947" y="182" width="272" height="70" fill="#34D286"/>
<path d="M1016.66 207.06V210.45H1011.08V228H1006.88V210.45H1001.3V207.06H1016.66ZM1023.92 210.45V215.7H1030.97V219.03H1023.92V224.58H1031.87V228H1019.72V207.03H1031.87V210.45H1023.92ZM1058.52 207.06V228H1054.32V214.38L1048.71 228H1045.53L1039.89 214.38V228H1035.69V207.06H1040.46L1047.12 222.63L1053.78 207.06H1058.52ZM1077.94 213.54C1077.94 214.66 1077.67 215.71 1077.13 216.69C1076.61 217.67 1075.78 218.46 1074.64 219.06C1073.52 219.66 1072.1 219.96 1070.38 219.96H1066.87V228H1062.67V207.06H1070.38C1072 207.06 1073.38 207.34 1074.52 207.9C1075.66 208.46 1076.51 209.23 1077.07 210.21C1077.65 211.19 1077.94 212.3 1077.94 213.54ZM1070.2 216.57C1071.36 216.57 1072.22 216.31 1072.78 215.79C1073.34 215.25 1073.62 214.5 1073.62 213.54C1073.62 211.5 1072.48 210.48 1070.2 210.48H1066.87V216.57H1070.2ZM1085.12 224.67H1092.02V228H1080.92V207.06H1085.12V224.67ZM1107.53 224.01H1099.19L1097.81 228H1093.4L1100.93 207.03H1105.82L1113.35 228H1108.91L1107.53 224.01ZM1106.39 220.65L1103.36 211.89L1100.33 220.65H1106.39ZM1130.42 207.06V210.45H1124.84V228H1120.64V210.45H1115.06V207.06H1130.42ZM1137.68 210.45V215.7H1144.73V219.03H1137.68V224.58H1145.63V228H1133.48V207.03H1145.63V210.45H1137.68ZM1156.68 228.21C1155.22 228.21 1153.9 227.96 1152.72 227.46C1151.56 226.96 1150.64 226.24 1149.96 225.3C1149.28 224.36 1148.93 223.25 1148.91 221.97H1153.41C1153.47 222.83 1153.77 223.51 1154.31 224.01C1154.87 224.51 1155.63 224.76 1156.59 224.76C1157.57 224.76 1158.34 224.53 1158.9 224.07C1159.46 223.59 1159.74 222.97 1159.74 222.21C1159.74 221.59 1159.55 221.08 1159.17 220.68C1158.79 220.28 1158.31 219.97 1157.73 219.75C1157.17 219.51 1156.39 219.25 1155.39 218.97C1154.03 218.57 1152.92 218.18 1152.06 217.8C1151.22 217.4 1150.49 216.81 1149.87 216.03C1149.27 215.23 1148.97 214.17 1148.97 212.85C1148.97 211.61 1149.28 210.53 1149.9 209.61C1150.52 208.69 1151.39 207.99 1152.51 207.51C1153.63 207.01 1154.91 206.76 1156.35 206.76C1158.51 206.76 1160.26 207.29 1161.6 208.35C1162.96 209.39 1163.71 210.85 1163.85 212.73H1159.23C1159.19 212.01 1158.88 211.42 1158.3 210.96C1157.74 210.48 1156.99 210.24 1156.05 210.24C1155.23 210.24 1154.57 210.45 1154.07 210.87C1153.59 211.29 1153.35 211.9 1153.35 212.7C1153.35 213.26 1153.53 213.73 1153.89 214.11C1154.27 214.47 1154.73 214.77 1155.27 215.01C1155.83 215.23 1156.61 215.49 1157.61 215.79C1158.97 216.19 1160.08 216.59 1160.94 216.99C1161.8 217.39 1162.54 217.99 1163.16 218.79C1163.78 219.59 1164.09 220.64 1164.09 221.94C1164.09 223.06 1163.8 224.1 1163.22 225.06C1162.64 226.02 1161.79 226.79 1160.67 227.37C1159.55 227.93 1158.22 228.21 1156.68 228.21Z" fill="white"/>
<path d="M59.5393 215.5C59.5393 213.44 59.9993 211.6 60.9193 209.98C61.8593 208.34 63.1293 207.07 64.7293 206.17C66.3493 205.25 68.1593 204.79 70.1593 204.79C72.4993 204.79 74.5493 205.39 76.3093 206.59C78.0693 207.79 79.2993 209.45 79.9993 211.57H75.1693C74.6893 210.57 74.0093 209.82 73.1293 209.32C72.2693 208.82 71.2693 208.57 70.1293 208.57C68.9093 208.57 67.8193 208.86 66.8593 209.44C65.9193 210 65.1793 210.8 64.6393 211.84C64.1193 212.88 63.8593 214.1 63.8593 215.5C63.8593 216.88 64.1193 218.1 64.6393 219.16C65.1793 220.2 65.9193 221.01 66.8593 221.59C67.8193 222.15 68.9093 222.43 70.1293 222.43C71.2693 222.43 72.2693 222.18 73.1293 221.68C74.0093 221.16 74.6893 220.4 75.1693 219.4H79.9993C79.2993 221.54 78.0693 223.21 76.3093 224.41C74.5693 225.59 72.5193 226.18 70.1593 226.18C68.1593 226.18 66.3493 225.73 64.7293 224.83C63.1293 223.91 61.8593 222.64 60.9193 221.02C59.9993 219.4 59.5393 217.56 59.5393 215.5ZM93.3066 226.21C91.3466 226.21 89.5466 225.75 87.9066 224.83C86.2666 223.91 84.9666 222.64 84.0066 221.02C83.0466 219.38 82.5666 217.53 82.5666 215.47C82.5666 213.43 83.0466 211.6 84.0066 209.98C84.9666 208.34 86.2666 207.06 87.9066 206.14C89.5466 205.22 91.3466 204.76 93.3066 204.76C95.2866 204.76 97.0866 205.22 98.7066 206.14C100.347 207.06 101.637 208.34 102.577 209.98C103.537 211.6 104.017 213.43 104.017 215.47C104.017 217.53 103.537 219.38 102.577 221.02C101.637 222.64 100.347 223.91 98.7066 224.83C97.0666 225.75 95.2666 226.21 93.3066 226.21ZM93.3066 222.46C94.5666 222.46 95.6766 222.18 96.6366 221.62C97.5966 221.04 98.3466 220.22 98.8866 219.16C99.4266 218.1 99.6966 216.87 99.6966 215.47C99.6966 214.07 99.4266 212.85 98.8866 211.81C98.3466 210.75 97.5966 209.94 96.6366 209.38C95.6766 208.82 94.5666 208.54 93.3066 208.54C92.0466 208.54 90.9266 208.82 89.9466 209.38C88.9866 209.94 88.2366 210.75 87.6966 211.81C87.1566 212.85 86.8866 214.07 86.8866 215.47C86.8866 216.87 87.1566 218.1 87.6966 219.16C88.2366 220.22 88.9866 221.04 89.9466 221.62C90.9266 222.18 92.0466 222.46 93.3066 222.46ZM129.971 205.06V226H125.771V212.38L120.161 226H116.981L111.341 212.38V226H107.141V205.06H111.911L118.571 220.63L125.231 205.06H129.971ZM149.394 211.54C149.394 212.66 149.124 213.71 148.584 214.69C148.064 215.67 147.234 216.46 146.094 217.06C144.974 217.66 143.554 217.96 141.834 217.96H138.324V226H134.124V205.06H141.834C143.454 205.06 144.834 205.34 145.974 205.9C147.114 206.46 147.964 207.23 148.524 208.21C149.104 209.19 149.394 210.3 149.394 211.54ZM141.654 214.57C142.814 214.57 143.674 214.31 144.234 213.79C144.794 213.25 145.074 212.5 145.074 211.54C145.074 209.5 143.934 208.48 141.654 208.48H138.324V214.57H141.654ZM162.096 226.21C160.136 226.21 158.336 225.75 156.696 224.83C155.056 223.91 153.756 222.64 152.796 221.02C151.836 219.38 151.356 217.53 151.356 215.47C151.356 213.43 151.836 211.6 152.796 209.98C153.756 208.34 155.056 207.06 156.696 206.14C158.336 205.22 160.136 204.76 162.096 204.76C164.076 204.76 165.876 205.22 167.496 206.14C169.136 207.06 170.426 208.34 171.366 209.98C172.326 211.6 172.806 213.43 172.806 215.47C172.806 217.53 172.326 219.38 171.366 221.02C170.426 222.64 169.136 223.91 167.496 224.83C165.856 225.75 164.056 226.21 162.096 226.21ZM162.096 222.46C163.356 222.46 164.466 222.18 165.426 221.62C166.386 221.04 167.136 220.22 167.676 219.16C168.216 218.1 168.486 216.87 168.486 215.47C168.486 214.07 168.216 212.85 167.676 211.81C167.136 210.75 166.386 209.94 165.426 209.38C164.466 208.82 163.356 208.54 162.096 208.54C160.836 208.54 159.716 208.82 158.736 209.38C157.776 209.94 157.026 210.75 156.486 211.81C155.946 212.85 155.676 214.07 155.676 215.47C155.676 216.87 155.946 218.1 156.486 219.16C157.026 220.22 157.776 221.04 158.736 221.62C159.716 222.18 160.836 222.46 162.096 222.46ZM193.84 226H189.64L180.13 211.63V226H175.93V205.03H180.13L189.64 219.43V205.03H193.84V226ZM202.191 208.45V213.7H209.241V217.03H202.191V222.58H210.141V226H197.991V205.03H210.141V208.45H202.191ZM231.868 226H227.668L218.158 211.63V226H213.958V205.03H218.158L227.668 219.43V205.03H231.868V226ZM250.268 205.06V208.45H244.688V226H240.488V208.45H234.908V205.06H250.268ZM257.533 208.45V213.7H264.583V217.03H257.533V222.58H265.483V226H253.333V205.03H265.483V208.45H257.533ZM276.529 226.21C275.069 226.21 273.749 225.96 272.569 225.46C271.409 224.96 270.489 224.24 269.809 223.3C269.129 222.36 268.779 221.25 268.759 219.97H273.259C273.319 220.83 273.619 221.51 274.159 222.01C274.719 222.51 275.479 222.76 276.439 222.76C277.419 222.76 278.189 222.53 278.749 222.07C279.309 221.59 279.589 220.97 279.589 220.21C279.589 219.59 279.399 219.08 279.019 218.68C278.639 218.28 278.159 217.97 277.579 217.75C277.019 217.51 276.239 217.25 275.239 216.97C273.879 216.57 272.769 216.18 271.909 215.8C271.069 215.4 270.339 214.81 269.719 214.03C269.119 213.23 268.819 212.17 268.819 210.85C268.819 209.61 269.129 208.53 269.749 207.61C270.369 206.69 271.239 205.99 272.359 205.51C273.479 205.01 274.759 204.76 276.199 204.76C278.359 204.76 280.109 205.29 281.449 206.35C282.809 207.39 283.559 208.85 283.699 210.73H279.079C279.039 210.01 278.729 209.42 278.149 208.96C277.589 208.48 276.839 208.24 275.899 208.24C275.079 208.24 274.419 208.45 273.919 208.87C273.439 209.29 273.199 209.9 273.199 210.7C273.199 211.26 273.379 211.73 273.739 212.11C274.119 212.47 274.579 212.77 275.119 213.01C275.679 213.23 276.459 213.49 277.459 213.79C278.819 214.19 279.929 214.59 280.789 214.99C281.649 215.39 282.389 215.99 283.009 216.79C283.629 217.59 283.939 218.64 283.939 219.94C283.939 221.06 283.649 222.1 283.069 223.06C282.489 224.02 281.639 224.79 280.519 225.37C279.399 225.93 278.069 226.21 276.529 226.21Z" fill="white"/>
<rect x="1894" width="272" height="70" fill="#E421A2"/>
<path d="M1980.38 30.54C1980.38 31.66 1980.11 32.71 1979.57 33.69C1979.05 34.67 1978.22 35.46 1977.08 36.06C1975.96 36.66 1974.54 36.96 1972.82 36.96H1969.31V45H1965.11V24.06H1972.82C1974.44 24.06 1975.82 24.34 1976.96 24.9C1978.1 25.46 1978.95 26.23 1979.51 27.21C1980.09 28.19 1980.38 29.3 1980.38 30.54ZM1972.64 33.57C1973.8 33.57 1974.66 33.31 1975.22 32.79C1975.78 32.25 1976.06 31.5 1976.06 30.54C1976.06 28.5 1974.92 27.48 1972.64 27.48H1969.31V33.57H1972.64ZM1996.2 41.01H1987.86L1986.48 45H1982.07L1989.6 24.03H1994.49L2002.02 45H1997.58L1996.2 41.01ZM1995.06 37.65L1992.03 28.89L1989 37.65H1995.06ZM1995.3 19.71L1988.4 22.86V19.86L1995.3 16.29V19.71ZM2019.42 30.36C2018.94 29.48 2018.28 28.81 2017.44 28.35C2016.6 27.89 2015.62 27.66 2014.5 27.66C2013.26 27.66 2012.16 27.94 2011.2 28.5C2010.24 29.06 2009.49 29.86 2008.95 30.9C2008.41 31.94 2008.14 33.14 2008.14 34.5C2008.14 35.9 2008.41 37.12 2008.95 38.16C2009.51 39.2 2010.28 40 2011.26 40.56C2012.24 41.12 2013.38 41.4 2014.68 41.4C2016.28 41.4 2017.59 40.98 2018.61 40.14C2019.63 39.28 2020.3 38.09 2020.62 36.57H2013.42V33.36H2024.76V37.02C2024.48 38.48 2023.88 39.83 2022.96 41.07C2022.04 42.31 2020.85 43.31 2019.39 44.07C2017.95 44.81 2016.33 45.18 2014.53 45.18C2012.51 45.18 2010.68 44.73 2009.04 43.83C2007.42 42.91 2006.14 41.64 2005.2 40.02C2004.28 38.4 2003.82 36.56 2003.82 34.5C2003.82 32.44 2004.28 30.6 2005.2 28.98C2006.14 27.34 2007.42 26.07 2009.04 25.17C2010.68 24.25 2012.5 23.79 2014.5 23.79C2016.86 23.79 2018.91 24.37 2020.65 25.53C2022.39 26.67 2023.59 28.28 2024.25 30.36H2019.42ZM2032.06 24.06V45H2027.86V24.06H2032.06ZM2054.12 45H2049.92L2040.41 30.63V45H2036.21V24.03H2040.41L2049.92 38.43V24.03H2054.12V45ZM2071.11 41.01H2062.77L2061.39 45H2056.98L2064.51 24.03H2069.4L2076.93 45H2072.49L2071.11 41.01ZM2069.97 37.65L2066.94 28.89L2063.91 37.65H2069.97ZM2086.98 45.21C2085.52 45.21 2084.2 44.96 2083.02 44.46C2081.86 43.96 2080.94 43.24 2080.26 42.3C2079.58 41.36 2079.23 40.25 2079.21 38.97H2083.71C2083.77 39.83 2084.07 40.51 2084.61 41.01C2085.17 41.51 2085.93 41.76 2086.89 41.76C2087.87 41.76 2088.64 41.53 2089.2 41.07C2089.76 40.59 2090.04 39.97 2090.04 39.21C2090.04 38.59 2089.85 38.08 2089.47 37.68C2089.09 37.28 2088.61 36.97 2088.03 36.75C2087.47 36.51 2086.69 36.25 2085.69 35.97C2084.33 35.57 2083.22 35.18 2082.36 34.8C2081.52 34.4 2080.79 33.81 2080.17 33.03C2079.57 32.23 2079.27 31.17 2079.27 29.85C2079.27 28.61 2079.58 27.53 2080.2 26.61C2080.82 25.69 2081.69 24.99 2082.81 24.51C2083.93 24.01 2085.21 23.76 2086.65 23.76C2088.81 23.76 2090.56 24.29 2091.9 25.35C2093.26 26.39 2094.01 27.85 2094.15 29.73H2089.53C2089.49 29.01 2089.18 28.42 2088.6 27.96C2088.04 27.48 2087.29 27.24 2086.35 27.24C2085.53 27.24 2084.87 27.45 2084.37 27.87C2083.89 28.29 2083.65 28.9 2083.65 29.7C2083.65 30.26 2083.83 30.73 2084.19 31.11C2084.57 31.47 2085.03 31.77 2085.57 32.01C2086.13 32.23 2086.91 32.49 2087.91 32.79C2089.27 33.19 2090.38 33.59 2091.24 33.99C2092.1 34.39 2092.84 34.99 2093.46 35.79C2094.08 36.59 2094.39 37.64 2094.39 38.94C2094.39 40.06 2094.1 41.1 2093.52 42.06C2092.94 43.02 2092.09 43.79 2090.97 44.37C2089.85 44.93 2088.52 45.21 2086.98 45.21Z" fill="white"/>
</svg>
